<svg width="1280" height="720" viewBox="0 0 1280 720" fill="none" xmlns="http://www.w3.org/2000/svg">
<g clip-path="url(#clip0_132_85)">
<rect width="1280" height="720" fill="white"/>
<path fill-rule="evenodd" clip-rule="evenodd" d="M1703.25 693.146L1687.4 649.522C1671.76 604.259 1639.33 516.307 1557.69 477.875C1476.04 439.443 1345.88 451.236 1264.24 412.804C1182.59 374.372 1151.1 285.486 1112.17 204.075C1072.32 123.597 1026.89 48.7261 959.173 -3.72093C891.458 -56.168 804.02 -87.3546 736.305 -139.802C669.518 -193.183 623.163 -267.12 600.095 -304.908L576.807 -341.057L832.199 -598L861.987 -568.392C892.485 -538.078 952.771 -478.156 1013.06 -418.235C1073.34 -358.313 1132.92 -299.096 1193.2 -239.174C1253.49 -179.253 1313.78 -119.331 1374.06 -59.409C1434.35 0.512793 1494.63 60.4346 1554.92 120.356C1615.21 180.278 1674.78 239.495 1735.07 299.417C1795.35 359.338 1855.64 419.26 1886.14 449.574L1915.93 479.182L1703.25 693.146Z" fill="#0099FF"/>
<path fill-rule="evenodd" clip-rule="evenodd" d="M39.6172 -206L22.4844 -158.768C3.96222 -110.283 -30.1661 -14.7659 16.6214 70.2037C63.4089 155.173 190.975 228.541 237.762 313.511C284.55 398.481 248.895 494.197 225.454 588.322C203.539 682.247 190.785 774.978 214.671 862.933C238.558 950.888 295.895 1033.41 319.782 1121.37C342.142 1209.52 330.915 1302.05 324.606 1348.94L319.687 1394.58L-100.159 1449.31L-105.927 1405.07C-111.832 1359.77 -123.505 1270.22 -135.178 1180.67C-146.851 1091.13 -158.387 1002.63 -170.06 913.086C-181.733 823.539 -193.406 733.992 -205.079 644.445C-216.753 554.898 -228.426 465.351 -240.099 375.804C-251.772 286.257 -263.308 197.763 -274.981 108.216C-286.654 18.6692 -298.327 -70.8779 -304.232 -116.178L-310 -160.425L39.6172 -206Z" fill="#0099FF"/>
</g>
<defs>
<clipPath id="clip0_132_85">
<rect width="1280" height="720" fill="white"/>
</clipPath>
</defs>
</svg>
