<svg width="559" height="139" viewBox="0 0 559 139" fill="none" xmlns="http://www.w3.org/2000/svg">
<rect width="533" height="139" fill="#7BDFF2"/>
<path d="M47.12 57.04C43.7067 57.04 41.1733 57.5733 39.52 58.64C37.92 59.6533 37.12 60.96 37.12 62.56C37.12 64.1067 37.9467 65.3067 39.6 66.16C41.2533 67.0133 43.2533 67.7067 45.6 68.24C48 68.72 50.3733 69.3333 52.72 70.08C55.0667 70.8267 57.0667 72.1067 58.72 73.92C60.3733 75.7333 61.2 78.2133 61.2 81.36C61.2 84.5067 59.84 87.2 57.12 89.44C54.4533 91.68 50.4533 92.8 45.12 92.8C39.84 92.8 35.0133 91.6 30.64 89.2V82.24H31.04C35.36 84.8 40.1067 86.08 45.28 86.08C51.2 86.08 54.16 84.1867 54.16 80.4C54.16 79.1733 53.3333 78.1867 51.68 77.44C50.0267 76.64 48.0267 75.9733 45.68 75.44C43.3333 74.9067 40.9867 74.2667 38.64 73.52C36.2933 72.7733 34.2933 71.52 32.64 69.76C30.9867 68 30.16 65.76 30.16 63.04C30.16 59.3067 31.4933 56.2667 34.16 53.92C36.88 51.5733 40.56 50.4 45.2 50.4C49.84 50.4 54.16 51.1467 58.16 52.64V59.28H57.6C54.0267 57.7867 50.5333 57.04 47.12 57.04ZM84.7575 92.8C80.3308 92.8 76.8375 91.3067 74.2775 88.32C71.7175 85.3333 70.4375 81.6 70.4375 77.12V51.2H77.7175V76.32C77.7175 82.8267 80.6508 86.08 86.5175 86.08C91.1575 86.08 95.5308 83.52 99.6375 78.4V51.2H106.918V92H100.518L99.6375 86.88V85.68H99.4775C95.1575 90.4267 90.2508 92.8 84.7575 92.8ZM127.106 56.32C130.892 52.3733 135.372 50.4 140.546 50.4C145.719 50.4 150.226 52.32 154.066 56.16C157.959 60 159.906 65.1467 159.906 71.6C159.906 78.0533 157.959 83.2 154.066 87.04C150.226 90.88 145.719 92.8 140.546 92.8C135.372 92.8 130.892 90.8267 127.106 86.88H126.866L125.986 92H119.586V33.6H126.866V56.32H127.106ZM139.506 86C143.452 86 146.626 84.7467 149.026 82.24C151.426 79.7333 152.626 76.1867 152.626 71.6C152.626 67.0133 151.426 63.4667 149.026 60.96C146.626 58.4533 143.452 57.2 139.506 57.2C134.706 57.2 130.492 59.2 126.866 63.2V80C130.492 84 134.706 86 139.506 86ZM191.574 57.44H179.974V81.6C179.974 83.84 180.588 85.2267 181.814 85.76C182.828 86.1867 184.134 86.4 185.734 86.4C187.334 86.4 189.094 85.9733 191.014 85.12H191.574V91.04C189.334 92.2133 186.934 92.8 184.374 92.8C176.588 92.8 172.694 89.28 172.694 82.24V57.44H165.094V56.96L179.974 42.4V51.2H191.574V57.44ZM208.678 33.6V92H201.398V33.6H208.678ZM257.769 71.6V74.16H226.889C227.316 77.8933 228.703 80.8 231.049 82.88C233.396 84.96 236.943 86 241.689 86C246.489 86 250.916 84.6667 254.969 82H255.369V89.04C250.889 91.5467 245.609 92.8 239.529 92.8C233.503 92.8 228.649 90.96 224.969 87.28C221.343 83.5467 219.529 78.5333 219.529 72.24C219.529 65.8933 221.156 60.6667 224.409 56.56C227.663 52.4533 232.409 50.4 238.649 50.4C244.889 50.4 249.636 52.4533 252.889 56.56C256.143 60.6667 257.769 65.68 257.769 71.6ZM226.889 68.24H250.489C250.276 64.4 248.969 61.4933 246.569 59.52C244.223 57.5467 241.583 56.56 238.649 56.56C235.716 56.56 233.076 57.5467 230.729 59.52C228.383 61.4933 227.103 64.4 226.889 68.24ZM309.856 57.44H298.256V81.6C298.256 83.84 298.869 85.2267 300.096 85.76C301.109 86.1867 302.416 86.4 304.016 86.4C305.616 86.4 307.376 85.9733 309.296 85.12H309.856V91.04C307.616 92.2133 305.216 92.8 302.656 92.8C294.869 92.8 290.976 89.28 290.976 82.24V57.44H283.376V56.96L298.256 42.4V51.2H309.856V57.44ZM316.559 71.6C316.559 65.2533 318.425 60.1333 322.159 56.24C325.892 52.3467 330.825 50.4 336.959 50.4C343.145 50.4 348.105 52.3467 351.839 56.24C355.625 60.1333 357.519 65.2533 357.519 71.6C357.519 77.9467 355.625 83.0667 351.839 86.96C348.105 90.8533 343.145 92.8 336.959 92.8C330.825 92.8 325.892 90.8533 322.159 86.96C318.425 83.0667 316.559 77.9467 316.559 71.6ZM327.759 82.56C330.425 84.96 333.519 86.16 337.039 86.16C340.559 86.16 343.625 84.96 346.239 82.56C348.905 80.1067 350.239 76.4533 350.239 71.6C350.239 66.6933 348.905 63.04 346.239 60.64C343.625 58.24 340.559 57.04 337.039 57.04C333.519 57.04 330.425 58.24 327.759 60.64C325.145 63.04 323.839 66.6933 323.839 71.6C323.839 76.4533 325.145 80.1067 327.759 82.56ZM381.711 92.8C377.284 92.8 373.791 91.3067 371.231 88.32C368.671 85.3333 367.391 81.6 367.391 77.12V51.2H374.671V76.32C374.671 82.8267 377.604 86.08 383.471 86.08C388.111 86.08 392.484 83.52 396.591 78.4V51.2H403.871V92H397.471L396.591 86.88V85.68H396.431C392.111 90.4267 387.204 92.8 381.711 92.8ZM448.779 61.2C444.832 58.5333 440.539 57.2 435.899 57.2C431.312 57.2 427.712 58.5333 425.099 61.2C422.485 63.8133 421.179 67.28 421.179 71.6C421.179 75.92 422.485 79.4133 425.099 82.08C427.712 84.6933 431.312 86 435.899 86C440.539 86 444.832 84.6667 448.779 82H449.099V88.88C444.672 91.4933 440.059 92.8 435.259 92.8C429.339 92.8 424.299 90.88 420.139 87.04C415.979 83.2 413.899 78.0533 413.899 71.6C413.899 65.1467 415.979 60 420.139 56.16C424.299 52.32 429.339 50.4 435.259 50.4C440.059 50.4 444.672 51.7067 449.099 54.32V61.2H448.779ZM481.589 50.4C486.016 50.4 489.509 51.8933 492.069 54.88C494.629 57.8667 495.909 61.6 495.909 66.08V92H488.629V66.88C488.629 60.3733 485.696 57.12 479.829 57.12C475.189 57.12 470.816 59.68 466.709 64.8V92H459.429V33.6H466.709V57.52H466.949C471.269 52.7733 476.149 50.4 481.589 50.4Z" fill="white"/>
</svg>
