<svg width="163" height="139" viewBox="0 0 163 139" fill="none" xmlns="http://www.w3.org/2000/svg">
<rect width="163" height="139" fill="#7BDFF2"/>
<path d="M63 90.8L64.92 78.32H74.12L76.28 87.2H85.4V81.44L70.44 71.12C68.1467 69.5733 66.4933 67.92 65.48 66.16C64.4667 64.3467 63.96 62.16 63.96 59.6C63.96 56.9867 64.3067 54.9333 65 53.44C65.7467 51.9467 66.6533 50.7733 67.72 49.92C68.7867 49.0667 70.2 48.4 71.96 47.92C74.7867 47.1733 78.7333 46.8 83.8 46.8C88.92 46.8 94.2267 47.6 99.72 49.2L97.8 61.68H89.4L87.48 52.8H79.16V58.56L94.12 68.88C96.4133 70.4267 98.0667 72.1067 99.08 73.92C100.093 75.68 100.6 77.8667 100.6 80.48C100.6 83.04 100.227 85.0667 99.48 86.56C98.7867 88.0533 97.9067 89.2267 96.84 90.08C95.7733 90.9333 94.36 91.6 92.6 92.08C89.7733 92.8267 85.64 93.2 80.2 93.2C74.76 93.2 69.0267 92.4 63 90.8Z" fill="white"/>
</svg>
